<svg xmlns="http://www.w3.org/2000/svg" viewBox="-5303 1112.074 37.275 26.098">
  <defs>
    <style>
      .cls-1 {
        fill: #fff;
      }
    </style>
  </defs>
  <path id="Exclusion_28" data-name="Exclusion 28" class="cls-1" d="M18.637,26.1c-.116,0-11.671-.009-14.585-.8A4.675,4.675,0,0,1,.767,22.015C.009,19.162,0,13.111,0,13.05S.009,6.968.767,4.083A4.783,4.783,0,0,1,4.053.767C6.936.009,18.521,0,18.637,0s11.7.009,14.585.8a4.675,4.675,0,0,1,3.285,3.285c.788,2.883.768,8.936.767,9s-.009,6.082-.767,8.965a4.673,4.673,0,0,1-3.285,3.285C30.337,26.089,18.754,26.1,18.637,26.1ZM14.566,7.052v12l10.414-6Z" transform="translate(-5303 1112.074)"/>
</svg>
